<svg width="47" height="47" viewBox="0 0 47 47" fill="none" xmlns="http://www.w3.org/2000/svg">
<path d="M45.7632 16.079C45.7632 10.8199 41.8783 7.42108 35.8684 7.42108C35.5404 7.42108 35.2258 7.55138 34.9939 7.78334C34.7619 8.01529 34.6316 8.32989 34.6316 8.65792C34.6316 8.98595 34.7619 9.30054 34.9939 9.5325C35.2258 9.76445 35.5404 9.89476 35.8684 9.89476C38.0997 9.89476 43.2895 10.4971 43.2895 16.079C43.2895 19.6423 41.0001 21.2391 38.2753 21.8822C38.0725 21.7919 37.8696 21.7004 37.647 21.6448C33.3168 20.5625 32.1579 22.2632 24.7369 22.2632C19.5854 22.2632 18.0097 16.8124 16.2867 13.4742C15.8341 10.9436 14.596 6.18423 13.6053 6.18423C12.8508 6.18423 11.8675 8.69131 11.2145 11.2083C10.4019 9.30973 9.34188 7.42108 8.6579 7.42108C7.77851 7.42108 6.90159 10.5441 6.46746 13.2417C4.15827 14.8174 2.47369 17.1018 2.47369 19.7895C2.47369 23.5 11.1316 25.9737 11.1316 25.9737C13.7512 27.3392 14.5242 29.3961 15.2194 31.2624C17.7697 39.1584 17.463 45.7632 19.1711 45.7632C20.8791 45.7632 22.2632 41.6111 22.2632 36.4869C22.2632 36.2247 22.257 35.9674 22.2496 35.7114C26.1518 35.5864 30.6044 34.3818 34.3582 35.349C36.0404 40.9061 36.4448 45.7632 37.7237 45.7632C38.9086 45.7632 39.9376 41.083 40.4559 36.5067C40.4942 36.3323 40.5227 36.1393 40.5227 35.8969L40.5338 35.7633C40.5746 35.3688 40.6105 34.9767 40.6426 34.5908L41.2796 27.6744C41.2796 26.299 40.9655 24.9323 40.347 23.8364C43.8448 22.5365 45.7632 19.8625 45.7632 16.079Z" fill="#F3A499"/>
<path d="M11.1316 17.3158C11.1316 17.6439 11.0013 17.9585 10.7693 18.1904C10.5374 18.4224 10.2228 18.5527 9.89474 18.5527C9.56671 18.5527 9.25212 18.4224 9.02016 18.1904C8.78821 17.9585 8.6579 17.6439 8.6579 17.3158C8.6579 16.9878 8.78821 16.6732 9.02016 16.4413C9.25212 16.2093 9.56671 16.079 9.89474 16.079C10.2228 16.079 10.5374 16.2093 10.7693 16.4413C11.0013 16.6732 11.1316 16.9878 11.1316 17.3158ZM4.94737 17.7797C3.71053 18.5527 3.71053 21.0264 3.09211 21.0264C2.47369 21.0264 1.23685 19.5718 1.23685 17.7797C1.23685 15.9862 6.46745 16.8285 4.94737 17.7797Z" fill="#292F33"/>
<path d="M4.94736 21.6448C4.8081 21.6448 4.67292 21.5978 4.56371 21.5114C4.4545 21.425 4.37764 21.3042 4.34559 21.1687C4.31353 21.0332 4.32815 20.8908 4.38709 20.7646C4.44602 20.6385 4.54581 20.5359 4.67031 20.4735C7.31839 19.1501 12.3066 20.3745 12.5181 20.4265C12.6772 20.4663 12.8139 20.5678 12.8982 20.7084C12.9825 20.8491 13.0075 21.0175 12.9677 21.1766C12.9278 21.3357 12.8264 21.4725 12.6857 21.5568C12.545 21.6411 12.3766 21.6661 12.2175 21.6262C12.1705 21.6139 7.46062 20.4611 5.22318 21.5792C5.1376 21.6223 5.04315 21.6447 4.94736 21.6448Z" fill="#662113"/>
<path d="M11.1316 24.1184C11.0096 24.1183 10.8904 24.0822 10.789 24.0145C10.7531 23.9898 7.20461 21.6447 4.94737 21.6447C4.78335 21.6447 4.62606 21.5796 4.51008 21.4636C4.3941 21.3476 4.32895 21.1903 4.32895 21.0263C4.32895 20.8623 4.3941 20.705 4.51008 20.589C4.62606 20.473 4.78335 20.4079 4.94737 20.4079C7.57813 20.4079 11.3171 22.8803 11.4754 22.9855C11.5859 23.0591 11.6697 23.1664 11.7145 23.2914C11.7593 23.4164 11.7627 23.5525 11.7241 23.6796C11.6855 23.8066 11.6071 23.9179 11.5004 23.997C11.3937 24.076 11.2644 24.1186 11.1316 24.1184Z" fill="#662113"/>
</svg>
