<svg width="36" height="36" viewBox="0 0 36 36" fill="none" xmlns="http://www.w3.org/2000/svg">
<path d="M28.1875 3.47327H9.63148C8.60848 3.47361 7.61797 3.83376 6.8323 4.49105C6.04663 5.14834 5.51552 6.06117 5.33138 7.07072L3.48015 17.3074C3.3648 17.9398 3.3894 18.5899 3.55221 19.2116C3.71501 19.8334 4.01205 20.4117 4.42229 20.9056C4.83253 21.3995 5.34595 21.7969 5.92622 22.0697C6.50649 22.3425 7.13943 22.484 7.78025 22.4842H14.4272L13.6109 24.5754C13.2714 25.491 13.1583 26.4756 13.2814 27.4447C13.4045 28.4138 13.76 29.3385 14.3176 30.1394C14.8751 30.9403 15.6181 31.5936 16.4826 32.0433C17.3471 32.4929 18.3074 32.7254 19.2812 32.7208C19.5616 32.7203 19.8359 32.6385 20.0711 32.4855C20.3064 32.3325 20.4927 32.1146 20.6077 31.858L24.762 22.4842H28.1875C29.3473 22.4842 30.4596 22.022 31.2797 21.1992C32.0998 20.3765 32.5605 19.2606 32.5605 18.0971V7.8604C32.5605 6.69686 32.0998 5.58098 31.2797 4.75823C30.4596 3.93548 29.3473 3.47327 28.1875 3.47327ZM22.3569 20.7147L18.392 29.6645C17.9863 29.5413 17.6101 29.3362 17.2864 29.0616C16.9628 28.7871 16.6986 28.4489 16.5102 28.0681C16.3217 27.6872 16.213 27.2716 16.1907 26.847C16.1684 26.4224 16.2329 25.9977 16.3805 25.5991L17.153 23.5079C17.3176 23.0658 17.3732 22.5904 17.315 22.1222C17.2568 21.654 17.0865 21.2068 16.8187 20.8189C16.5509 20.431 16.1936 20.1139 15.7771 19.8946C15.3607 19.6752 14.8975 19.5603 14.4272 19.5594H7.78025C7.5661 19.5598 7.35451 19.5128 7.16052 19.4218C6.96653 19.3308 6.7949 19.1981 6.65785 19.033C6.51743 18.8702 6.41457 18.6783 6.35662 18.471C6.29866 18.2637 6.28704 18.0461 6.32259 17.8338L8.17382 7.59717C8.23591 7.2565 8.4165 6.94899 8.68343 6.7294C8.95037 6.5098 9.28632 6.39238 9.63148 6.39802H22.3569V20.7147ZM29.6452 18.0971C29.6452 18.4849 29.4916 18.8569 29.2182 19.1311C28.9449 19.4054 28.5741 19.5594 28.1875 19.5594H25.2722V6.39802H28.1875C28.5741 6.39802 28.9449 6.5521 29.2182 6.82634C29.4916 7.10059 29.6452 7.47256 29.6452 7.8604V18.0971Z" fill="white"/>
</svg>
