<svg width="30" height="30" viewBox="0 0 30 30" fill="none" xmlns="http://www.w3.org/2000/svg">
<path d="M23.6734 2.5H7.81223C6.9378 2.50029 6.09114 2.80814 5.41957 3.36997C4.748 3.9318 4.29402 4.71207 4.13663 5.575L2.55425 14.325C2.45565 14.8655 2.47668 15.4212 2.61584 15.9527C2.755 16.4842 3.0089 16.9785 3.35956 17.4007C3.71022 17.8228 4.14908 18.1625 4.64508 18.3957C5.14108 18.6289 5.6821 18.7498 6.22985 18.75H11.9115L11.2137 20.5375C10.9235 21.3201 10.8268 22.1617 10.9321 22.9901C11.0373 23.8185 11.3412 24.6088 11.8178 25.2935C12.2944 25.9781 12.9294 26.5365 13.6684 26.9208C14.4073 27.3051 15.2282 27.5039 16.0605 27.5C16.3002 27.4995 16.5347 27.4297 16.7358 27.2988C16.9369 27.168 17.0961 26.9818 17.1944 26.7625L20.7454 18.75H23.6734C24.6648 18.75 25.6155 18.3549 26.3165 17.6516C27.0175 16.9484 27.4113 15.9946 27.4113 15V6.25C27.4113 5.25544 27.0175 4.30161 26.3165 3.59835C25.6155 2.89509 24.6648 2.5 23.6734 2.5ZM18.6895 17.2375L15.3005 24.8875C14.9537 24.7822 14.6321 24.6069 14.3555 24.3722C14.0788 24.1375 13.853 23.8485 13.6919 23.5229C13.5308 23.1974 13.4379 22.8422 13.4188 22.4792C13.3998 22.1163 13.455 21.7532 13.5811 21.4125L14.2414 19.625C14.3821 19.2472 14.4296 18.8408 14.3799 18.4406C14.3301 18.0404 14.1846 17.6581 13.9557 17.3266C13.7268 16.995 13.4213 16.7239 13.0653 16.5365C12.7094 16.349 12.3135 16.2507 11.9115 16.25H6.22985C6.04681 16.2503 5.86594 16.2101 5.70012 16.1324C5.53431 16.0546 5.38761 15.9411 5.27046 15.8C5.15043 15.6608 5.06251 15.4968 5.01297 15.3196C4.96343 15.1425 4.9535 14.9565 4.98388 14.775L6.56626 6.025C6.61934 5.7338 6.7737 5.47095 7.00187 5.28325C7.23004 5.09555 7.5172 4.99517 7.81223 5H18.6895V17.2375ZM24.9194 15C24.9194 15.3315 24.7881 15.6495 24.5544 15.8839C24.3208 16.1183 24.0039 16.25 23.6734 16.25H21.1815V5H23.6734C24.0039 5 24.3208 5.1317 24.5544 5.36612C24.7881 5.60054 24.9194 5.91848 24.9194 6.25V15Z" fill="#FF868E"/>
</svg>
