<svg width="36" height="36" viewBox="0 0 36 36" fill="none" xmlns="http://www.w3.org/2000/svg">
<path d="M24.4971 4.93564C22.01 4.93564 19.6651 6.08329 18.1016 7.94816C16.5381 6.08329 14.1932 4.93564 11.7061 4.93564C7.30019 4.93564 3.8894 8.37824 3.8894 12.8253C3.8894 18.276 8.72142 22.6516 16.0406 29.3932L18.1016 31.2585L20.1626 29.3932C27.4817 22.6516 32.3138 18.276 32.3138 12.8253C32.3138 8.37824 28.903 4.93564 24.4971 4.93564ZM18.9787 27.5059L18.6904 27.7714L18.1016 28.3042L17.5129 27.7714L17.225 27.5062C13.78 24.3336 10.8048 21.5936 8.83798 19.1437C6.92774 16.7641 6.0759 14.8155 6.0759 12.8253C6.0759 11.2579 6.65135 9.81386 7.69629 8.75923C8.73774 7.7081 10.1618 7.12921 11.7061 7.12921C13.4918 7.12921 15.2571 7.96324 16.4283 9.36013L18.1016 11.356L19.7749 9.36013C20.9461 7.96324 22.7113 7.12921 24.4971 7.12921C26.0415 7.12921 27.4655 7.7081 28.507 8.75916C29.5519 9.81386 30.1273 11.2578 30.1273 12.8253C30.1273 14.8155 29.2755 16.764 27.3654 19.1435C25.3986 21.5935 22.4235 24.3333 18.9787 27.5059Z" fill="white"/>
</svg>
