<svg width="86" height="86" viewBox="0 0 86 86" fill="none" xmlns="http://www.w3.org/2000/svg">
<g clip-path="url(#clip0_23_2)">
<path d="M79.9264 36.2158C79.9264 38.0496 79.3826 39.8422 78.3638 41.367C77.345 42.8918 75.8969 44.0802 74.2027 44.782C72.5085 45.4837 70.6442 45.6674 68.8456 45.3096C67.047 44.9518 65.3949 44.0688 64.0982 42.7721C62.8015 41.4753 61.9184 39.8232 61.5606 38.0246C61.2029 36.2261 61.3865 34.3618 62.0883 32.6675C62.79 30.9733 63.9784 29.5252 65.5032 28.5064C67.028 27.4876 68.8206 26.9438 70.6545 26.9438C73.1127 26.9465 75.4695 27.9243 77.2077 29.6625C78.9459 31.4008 79.9237 33.7575 79.9264 36.2158V36.2158ZM24.2945 36.2158C24.2945 34.3819 23.7507 32.5893 22.7319 31.0645C21.7131 29.5398 20.265 28.3513 18.5708 27.6496C16.8765 26.9478 15.0123 26.7642 13.2137 27.1219C11.4151 27.4797 9.76297 28.3628 8.46626 29.6595C7.16954 30.9562 6.28647 32.6083 5.92871 34.4069C5.57095 36.2055 5.75457 38.0698 6.45634 39.764C7.15812 41.4582 8.34653 42.9063 9.8713 43.9251C11.3961 44.944 13.1887 45.4878 15.0225 45.4878C17.4808 45.485 19.8375 44.5072 21.5758 42.769C23.314 41.0308 24.2918 38.674 24.2945 36.2158V36.2158ZM30.9174 29.5929C32.7512 29.5929 34.5438 29.0491 36.0686 28.0303C37.5934 27.0115 38.7818 25.5634 39.4836 23.8692C40.1853 22.1749 40.369 20.3107 40.0112 18.5121C39.6534 16.7135 38.7704 15.0614 37.4737 13.7647C36.1769 12.4679 34.5248 11.5849 32.7262 11.2271C30.9277 10.8694 29.0634 11.053 27.3691 11.7547C25.6749 12.4565 24.2268 13.6449 23.208 15.1697C22.1892 16.6945 21.6454 18.4871 21.6454 20.3209C21.6481 22.7792 22.6259 25.1359 24.3641 26.8742C26.1024 28.6124 28.4591 29.5902 30.9174 29.5929V29.5929ZM54.7596 29.5929C56.5935 29.5929 58.3861 29.0491 59.9109 28.0303C61.4356 27.0115 62.624 25.5634 63.3258 23.8692C64.0276 22.1749 64.2112 20.3107 63.8535 18.5121C63.4957 16.7135 62.6126 15.0614 61.3159 13.7647C60.0192 12.4679 58.3671 11.5849 56.5685 11.2271C54.7699 10.8694 52.9056 11.053 51.2114 11.7547C49.5172 12.4565 48.0691 13.6449 47.0503 15.1697C46.0314 16.6945 45.4876 18.4871 45.4876 20.3209C45.4904 22.7792 46.4681 25.1359 48.2064 26.8742C49.9446 28.6124 52.3014 29.5902 54.7596 29.5929V29.5929ZM62.4063 49.7412C59.694 48.2404 57.6882 45.7246 56.8293 42.7461C55.9489 39.7167 54.1091 37.0548 51.5862 35.1606C49.0634 33.2664 45.9938 32.2422 42.839 32.2421C39.6842 32.2419 36.6146 33.2657 34.0916 35.1597C31.5685 37.0536 29.7284 39.7153 28.8477 42.7447C27.9923 45.7192 25.9915 48.2327 23.2846 49.7334C20.2952 51.354 18.0434 54.062 16.9953 57.2968C15.9472 60.5317 16.1831 64.0456 17.6541 67.1114C19.1251 70.1771 21.7187 72.5599 24.8978 73.7664C28.077 74.9729 31.5983 74.9107 34.7329 73.5928C39.9134 71.4518 45.7306 71.4474 50.9143 73.5805C54.0472 74.9077 57.5706 74.9787 60.7544 73.7787C63.9382 72.5787 66.5382 70.1997 68.0157 67.1348C69.4931 64.07 69.7348 60.5541 68.6904 57.3159C67.6461 54.0777 65.396 51.3655 62.4063 49.7412V49.7412Z" fill="#FF868E" fill-opacity="0.8"/>
</g>
<defs>
<clipPath id="clip0_23_2">
<rect width="84.7724" height="84.7724" fill="white" transform="translate(0.452271 0.452332)"/>
</clipPath>
</defs>
</svg>
