<svg width="36" height="36" viewBox="0 0 36 36" fill="none" xmlns="http://www.w3.org/2000/svg">
<path d="M25.7684 32.6067C25.3739 32.6067 24.977 32.5111 24.6115 32.3187L18.0176 28.8392L11.3574 32.3174C10.9477 32.536 10.4847 32.6341 10.0219 32.6005C9.55902 32.5669 9.115 32.4029 8.74088 32.1274C8.36431 31.8556 8.07183 31.4826 7.89707 31.0514C7.7223 30.6203 7.67232 30.1484 7.75289 29.69L9.01231 22.3245L3.65737 17.0442C3.32351 16.7206 3.08743 16.3091 2.97625 15.8569C2.86507 15.4048 2.88331 14.9303 3.02886 14.4881C3.17092 14.0452 3.43443 13.6514 3.78922 13.3517C4.14402 13.0521 4.57576 12.8587 5.03501 12.7938L12.4057 11.7191L15.757 4.97802C16.1792 4.12117 17.0321 3.58987 17.9851 3.58987C18.9381 3.58987 19.791 4.12117 20.2132 4.97802L23.5101 11.6791L30.9351 12.7938C31.3944 12.8587 31.8261 13.0521 32.1809 13.3517C32.5357 13.6514 32.7992 14.0452 32.9413 14.4881C33.0863 14.9304 33.1042 15.4047 32.993 15.8567C32.8819 16.3088 32.6461 16.7203 32.3128 17.0442L26.9783 22.2603L28.2173 29.6912C28.2971 30.1496 28.2468 30.6212 28.0721 31.0522C27.8974 31.4833 27.6053 31.8563 27.2293 32.1286C26.8045 32.4381 26.2933 32.6054 25.7684 32.6067ZM5.34021 15.3111L10.6734 20.5272C11.2585 21.1009 11.5263 21.9239 11.3888 22.7323L10.1306 30.0991L10.7965 31.2464L10.2343 30.1753L16.827 26.6971C17.1836 26.5091 17.5803 26.4108 17.9831 26.4106C18.3859 26.4104 18.7828 26.5083 19.1395 26.6959L25.7334 30.1753L25.8371 30.0991L24.5777 22.7335C24.51 22.3352 24.5397 21.9264 24.664 21.5422C24.7884 21.1579 25.0039 20.8096 25.2919 20.5272L30.6263 15.3111L30.5865 15.1864L23.2158 14.1117C22.8172 14.0532 22.4387 13.8985 22.1128 13.6609C21.7869 13.4234 21.5234 13.11 21.3447 12.7478L18.0478 6.04667C18.0382 6.02731 18.0273 6.00794 17.9827 6.00794L14.6206 12.7478C14.4425 13.11 14.1794 13.4233 13.8539 13.6609C13.5284 13.8985 13.1503 14.0532 12.752 14.1117L5.37881 15.1864L4.49698 16.1764L5.34021 15.3111Z" fill="white"/>
</svg>
