<svg width="30" height="30" viewBox="0 0 30 30" fill="none" xmlns="http://www.w3.org/2000/svg">
<path d="M21.6755 27.4024C21.3373 27.4024 20.9969 27.3207 20.6835 27.1562L15.029 24.1821L9.31761 27.1552C8.96622 27.342 8.56924 27.4259 8.17232 27.3971C7.77539 27.3684 7.39463 27.2283 7.07381 26.9928C6.75089 26.7604 6.50008 26.4416 6.3502 26.073C6.20033 25.7045 6.15748 25.3011 6.22657 24.9093L7.30657 18.6135L2.7145 14.1C2.42821 13.8234 2.22576 13.4717 2.13042 13.0852C2.03508 12.6987 2.05072 12.2932 2.17554 11.9152C2.29735 11.5366 2.52332 11.2 2.82758 10.9438C3.13183 10.6877 3.50206 10.5224 3.89588 10.4669L10.2166 9.54829L13.0904 3.78622C13.4524 3.05381 14.1838 2.59967 15.0011 2.59967C15.8183 2.59967 16.5497 3.05381 16.9117 3.78622L19.739 9.51415L26.1062 10.4669C26.5 10.5224 26.8703 10.6877 27.1745 10.9438C27.4788 11.2 27.7048 11.5366 27.8266 11.9152C27.9509 12.2932 27.9663 12.6986 27.871 13.085C27.7756 13.4714 27.5735 13.8232 27.2876 14.1L22.7131 18.5586L23.7755 24.9104C23.844 25.3021 23.8009 25.7053 23.651 26.0737C23.5012 26.4422 23.2508 26.761 22.9283 26.9938C22.564 27.2583 22.1257 27.4013 21.6755 27.4024ZM4.15761 12.6186L8.73105 17.0773C9.23278 17.5676 9.46243 18.2711 9.3445 18.9621L8.26554 25.259L8.83657 26.2397L8.3545 25.3242L14.008 22.3511C14.3137 22.1904 14.654 22.1064 14.9994 22.1062C15.3448 22.106 15.6851 22.1897 15.9911 22.35L21.6455 25.3242L21.7345 25.259L20.6545 18.9631C20.5965 18.6227 20.6219 18.2733 20.7285 17.9448C20.8352 17.6163 21.0199 17.3186 21.2669 17.0773L25.8414 12.6186L25.8073 12.5121L19.4866 11.5935C19.1448 11.5434 18.8202 11.4112 18.5407 11.2081C18.2613 11.0051 18.0353 10.7372 17.8821 10.4276L15.0548 4.69967C15.0466 4.68312 15.0373 4.66657 14.999 4.66657L12.1159 10.4276C11.9632 10.7372 11.7376 11.005 11.4584 11.2081C11.1793 11.4112 10.855 11.5434 10.5135 11.5935L4.19071 12.5121L3.4345 13.3583L4.15761 12.6186Z" fill="#FF868E"/>
</svg>
